<mxfile host="app.diagrams.net" agent="Mozilla/5.0 (Windows NT 10.0; Win64; x64) AppleWebKit/537.36 (KHTML, like Gecko) Chrome/134.0.0.0 Safari/537.36" version="26.2.15">
  <diagram name="第 1 页" id="ZlxaygMrwC_V4yadAAbP">
    <mxGraphModel dx="2300" dy="1604" grid="1" gridSize="10" guides="1" tooltips="1" connect="1" arrows="1" fold="1" page="1" pageScale="1" pageWidth="827" pageHeight="1169" math="0" shadow="0">
      <root>
        <mxCell id="0" />
        <mxCell id="1" parent="0" />
        <mxCell id="uxkE2W5Ma2Xc4yEUWn1J-6" value="" style="edgeStyle=orthogonalEdgeStyle;rounded=0;orthogonalLoop=1;jettySize=auto;html=1;entryX=0;entryY=0.5;entryDx=0;entryDy=0;" parent="1" source="uxkE2W5Ma2Xc4yEUWn1J-1" target="uxkE2W5Ma2Xc4yEUWn1J-8" edge="1">
          <mxGeometry relative="1" as="geometry">
            <mxPoint x="240" y="65" as="targetPoint" />
          </mxGeometry>
        </mxCell>
        <mxCell id="uxkE2W5Ma2Xc4yEUWn1J-1" value="AnnotationInvocationHandler&lt;div&gt;.readObject(setValue(xxx))&lt;/div&gt;" style="rounded=1;whiteSpace=wrap;html=1;" parent="1" vertex="1">
          <mxGeometry x="-10" y="260" width="160" height="60" as="geometry" />
        </mxCell>
        <mxCell id="uxkE2W5Ma2Xc4yEUWn1J-9" style="edgeStyle=orthogonalEdgeStyle;rounded=0;orthogonalLoop=1;jettySize=auto;html=1;exitX=1;exitY=0.5;exitDx=0;exitDy=0;" parent="1" source="uxkE2W5Ma2Xc4yEUWn1J-8" edge="1">
          <mxGeometry relative="1" as="geometry">
            <mxPoint x="410" y="290" as="targetPoint" />
          </mxGeometry>
        </mxCell>
        <mxCell id="uxkE2W5Ma2Xc4yEUWn1J-8" value="Map.Entry.setValue&lt;div&gt;(parent.checkSetValue(xxx))&lt;/div&gt;" style="rounded=1;whiteSpace=wrap;html=1;" parent="1" vertex="1">
          <mxGeometry x="210" y="260" width="150" height="60" as="geometry" />
        </mxCell>
        <mxCell id="uxkE2W5Ma2Xc4yEUWn1J-15" style="edgeStyle=orthogonalEdgeStyle;rounded=0;orthogonalLoop=1;jettySize=auto;html=1;" parent="1" source="uxkE2W5Ma2Xc4yEUWn1J-10" edge="1">
          <mxGeometry relative="1" as="geometry">
            <mxPoint x="650" y="290" as="targetPoint" />
          </mxGeometry>
        </mxCell>
        <mxCell id="uxkE2W5Ma2Xc4yEUWn1J-10" value="TransformedMap.checkSetValue&lt;div&gt;(transform(xxx))&lt;/div&gt;" style="rounded=1;whiteSpace=wrap;html=1;" parent="1" vertex="1">
          <mxGeometry x="413.5" y="260" width="186.5" height="60" as="geometry" />
        </mxCell>
        <mxCell id="uxkE2W5Ma2Xc4yEUWn1J-12" style="edgeStyle=orthogonalEdgeStyle;rounded=0;orthogonalLoop=1;jettySize=auto;html=1;" parent="1" source="uxkE2W5Ma2Xc4yEUWn1J-11" edge="1">
          <mxGeometry relative="1" as="geometry">
            <mxPoint x="370" y="290" as="targetPoint" />
          </mxGeometry>
        </mxCell>
        <mxCell id="uxkE2W5Ma2Xc4yEUWn1J-11" value="由于遍历反射调用AnnotatonInvocationHandler的&lt;div&gt;构造器传的参数transformedMap的&lt;/div&gt;&lt;div&gt;键值对&lt;span style=&quot;background-color: transparent; color: light-dark(rgb(0, 0, 0), rgb(255, 255, 255));&quot;&gt;(由entryset获得),所以它就有&lt;/span&gt;&lt;/div&gt;&lt;div&gt;&lt;span style=&quot;background-color: transparent; color: light-dark(rgb(0, 0, 0), rgb(255, 255, 255));&quot;&gt;一个&lt;/span&gt;&lt;span style=&quot;background-color: transparent; color: light-dark(rgb(0, 0, 0), rgb(255, 255, 255));&quot;&gt;属性parent指向&lt;/span&gt;&lt;div&gt;transformedMap&lt;/div&gt;&lt;/div&gt;" style="ellipse;whiteSpace=wrap;html=1;" parent="1" vertex="1">
          <mxGeometry x="240" y="90" width="240" height="100" as="geometry" />
        </mxCell>
        <mxCell id="uxkE2W5Ma2Xc4yEUWn1J-16" value="&lt;span style=&quot;background-color: transparent; color: light-dark(rgb(0, 0, 0), rgb(255, 255, 255));&quot;&gt;ChainedTransformer.transform(xxx)&lt;/span&gt;&lt;div&gt;循环调数组中的transform&lt;/div&gt;&lt;div&gt;上一个的结果是下一个的transform(),括号中的参数&lt;/div&gt;" style="rounded=1;whiteSpace=wrap;html=1;" parent="1" vertex="1">
          <mxGeometry x="650" y="250" width="200" height="60" as="geometry" />
        </mxCell>
        <mxCell id="uxkE2W5Ma2Xc4yEUWn1J-18" style="edgeStyle=orthogonalEdgeStyle;rounded=0;orthogonalLoop=1;jettySize=auto;html=1;" parent="1" edge="1">
          <mxGeometry relative="1" as="geometry">
            <mxPoint x="630" y="290" as="targetPoint" />
            <mxPoint x="620" y="160" as="sourcePoint" />
            <Array as="points">
              <mxPoint x="620" y="210" />
              <mxPoint x="630" y="210" />
              <mxPoint x="630" y="280" />
            </Array>
          </mxGeometry>
        </mxCell>
        <mxCell id="uxkE2W5Ma2Xc4yEUWn1J-17" value="TransformedMap.&lt;span style=&quot;background-color: transparent; color: light-dark(rgb(0, 0, 0), rgb(255, 255, 255));&quot;&gt;decorate&lt;/span&gt;&lt;div&gt;传参ChainedTransformer&lt;/div&gt;" style="ellipse;whiteSpace=wrap;html=1;" parent="1" vertex="1">
          <mxGeometry x="540" y="80" width="160" height="100" as="geometry" />
        </mxCell>
        <mxCell id="uxkE2W5Ma2Xc4yEUWn1J-19" value="setValue(xxx)&lt;div&gt;xxx不可控&lt;/div&gt;" style="rhombus;whiteSpace=wrap;html=1;" parent="1" vertex="1">
          <mxGeometry x="70" y="440" width="110" height="90" as="geometry" />
        </mxCell>
        <mxCell id="uxkE2W5Ma2Xc4yEUWn1J-20" style="edgeStyle=orthogonalEdgeStyle;rounded=0;orthogonalLoop=1;jettySize=auto;html=1;exitX=0.5;exitY=0;exitDx=0;exitDy=0;" parent="1" source="uxkE2W5Ma2Xc4yEUWn1J-19" edge="1">
          <mxGeometry relative="1" as="geometry">
            <mxPoint x="123" y="410" as="sourcePoint" />
            <mxPoint x="128" y="300" as="targetPoint" />
            <Array as="points">
              <mxPoint x="123" y="440" />
              <mxPoint x="123" y="340" />
              <mxPoint x="128" y="340" />
            </Array>
          </mxGeometry>
        </mxCell>
        <mxCell id="uxkE2W5Ma2Xc4yEUWn1J-26" value="" style="strokeWidth=2;html=1;shape=mxgraph.flowchart.annotation_2;align=left;labelPosition=right;pointerEvents=1;" parent="1" vertex="1">
          <mxGeometry x="850" y="235" width="60" height="100" as="geometry" />
        </mxCell>
        <mxCell id="uxkE2W5Ma2Xc4yEUWn1J-27" value="ConstantTransformer&lt;div&gt;.transform(xxx)&lt;/div&gt;" style="rounded=1;whiteSpace=wrap;html=1;" parent="1" vertex="1">
          <mxGeometry x="900" y="200" width="130" height="50" as="geometry" />
        </mxCell>
        <mxCell id="uxkE2W5Ma2Xc4yEUWn1J-31" value="" style="curved=1;endArrow=classic;html=1;rounded=0;exitX=1;exitY=0.5;exitDx=0;exitDy=0;" parent="1" source="uxkE2W5Ma2Xc4yEUWn1J-19" edge="1">
          <mxGeometry width="50" height="50" relative="1" as="geometry">
            <mxPoint x="540" y="490" as="sourcePoint" />
            <mxPoint x="740" y="330" as="targetPoint" />
            <Array as="points">
              <mxPoint x="480" y="530" />
              <mxPoint x="370" y="370" />
              <mxPoint x="580" y="430" />
            </Array>
          </mxGeometry>
        </mxCell>
        <mxCell id="uxkE2W5Ma2Xc4yEUWn1J-36" style="edgeStyle=orthogonalEdgeStyle;rounded=0;orthogonalLoop=1;jettySize=auto;html=1;entryX=1;entryY=0.5;entryDx=0;entryDy=0;exitX=0.875;exitY=0.5;exitDx=0;exitDy=0;exitPerimeter=0;" parent="1" source="uxkE2W5Ma2Xc4yEUWn1J-32" target="uxkE2W5Ma2Xc4yEUWn1J-27" edge="1">
          <mxGeometry relative="1" as="geometry">
            <Array as="points">
              <mxPoint x="835" y="420" />
              <mxPoint x="1150" y="420" />
              <mxPoint x="1150" y="225" />
            </Array>
          </mxGeometry>
        </mxCell>
        <mxCell id="uxkE2W5Ma2Xc4yEUWn1J-32" value="数组中第一个调transform&lt;div&gt;方法的&lt;span style=&quot;background-color: transparent; color: light-dark(rgb(0, 0, 0), rgb(255, 255, 255));&quot;&gt;就要不受到transform&lt;/span&gt;&lt;div&gt;传入参数xxx的影响&lt;/div&gt;&lt;/div&gt;" style="ellipse;shape=cloud;whiteSpace=wrap;html=1;" parent="1" vertex="1">
          <mxGeometry x="660" y="350" width="200" height="130" as="geometry" />
        </mxCell>
        <mxCell id="uxkE2W5Ma2Xc4yEUWn1J-33" value="框架流程" style="rounded=0;whiteSpace=wrap;html=1;fillColor=#dae8fc;strokeColor=#6c8ebf;gradientColor=#7ea6e0;fontSize=16;" parent="1" vertex="1">
          <mxGeometry x="-140" y="260" width="120" height="60" as="geometry" />
        </mxCell>
        <mxCell id="uxkE2W5Ma2Xc4yEUWn1J-34" value="&lt;font style=&quot;font-size: 14px;&quot;&gt;关于同名函数调用传目标类对象的连接&lt;/font&gt;" style="rounded=0;whiteSpace=wrap;html=1;fillColor=#dae8fc;gradientColor=#7ea6e0;strokeColor=#6c8ebf;" parent="1" vertex="1">
          <mxGeometry x="-140" y="110" width="120" height="60" as="geometry" />
        </mxCell>
        <mxCell id="uxkE2W5Ma2Xc4yEUWn1J-35" value="&lt;font style=&quot;font-size: 15px;&quot;&gt;方法/(括号)中的参数传递&lt;/font&gt;" style="rounded=0;whiteSpace=wrap;html=1;fillColor=#dae8fc;gradientColor=#7ea6e0;strokeColor=#6c8ebf;" parent="1" vertex="1">
          <mxGeometry x="-140" y="435" width="120" height="60" as="geometry" />
        </mxCell>
        <mxCell id="uxkE2W5Ma2Xc4yEUWn1J-37" value="ConstantTransformer的&lt;div&gt;transform方法就与传&lt;/div&gt;&lt;div&gt;入的xx无关&lt;/div&gt;" style="ellipse;shape=cloud;whiteSpace=wrap;html=1;" parent="1" vertex="1">
          <mxGeometry x="1020" y="120" width="180" height="90" as="geometry" />
        </mxCell>
        <mxCell id="uxkE2W5Ma2Xc4yEUWn1J-42" value="InvokerTransformer.&lt;div&gt;transform()&lt;/div&gt;" style="rounded=1;whiteSpace=wrap;html=1;" parent="1" vertex="1">
          <mxGeometry x="900" y="310" width="120" height="60" as="geometry" />
        </mxCell>
        <mxCell id="uxkE2W5Ma2Xc4yEUWn1J-50" style="edgeStyle=orthogonalEdgeStyle;rounded=0;orthogonalLoop=1;jettySize=auto;html=1;" parent="1" edge="1">
          <mxGeometry relative="1" as="geometry">
            <mxPoint x="630" y="290" as="targetPoint" />
            <mxPoint x="616.62" y="879.9973190348526" as="sourcePoint" />
          </mxGeometry>
        </mxCell>
        <mxCell id="uxkE2W5Ma2Xc4yEUWn1J-49" value="LazyMap.get&lt;div&gt;(transform(xxx))&lt;/div&gt;" style="rounded=1;whiteSpace=wrap;html=1;" parent="1" vertex="1">
          <mxGeometry x="450" y="850" width="173.25" height="60" as="geometry" />
        </mxCell>
        <mxCell id="uxkE2W5Ma2Xc4yEUWn1J-52" value="后面一样的" style="ellipse;shape=cloud;whiteSpace=wrap;html=1;" parent="1" vertex="1">
          <mxGeometry x="670" y="585" width="120" height="80" as="geometry" />
        </mxCell>
        <mxCell id="uxkE2W5Ma2Xc4yEUWn1J-53" value="AnnotationInvocationHandler&lt;div&gt;.invoke(membervalues.get)&lt;/div&gt;" style="rounded=1;whiteSpace=wrap;html=1;" parent="1" vertex="1">
          <mxGeometry x="210" y="850" width="180" height="60" as="geometry" />
        </mxCell>
        <mxCell id="uxkE2W5Ma2Xc4yEUWn1J-54" style="edgeStyle=orthogonalEdgeStyle;rounded=0;orthogonalLoop=1;jettySize=auto;html=1;exitX=1;exitY=0.5;exitDx=0;exitDy=0;entryX=0;entryY=0.5;entryDx=0;entryDy=0;" parent="1" source="uxkE2W5Ma2Xc4yEUWn1J-53" target="uxkE2W5Ma2Xc4yEUWn1J-49" edge="1">
          <mxGeometry relative="1" as="geometry" />
        </mxCell>
        <mxCell id="uxkE2W5Ma2Xc4yEUWn1J-56" style="edgeStyle=orthogonalEdgeStyle;rounded=0;orthogonalLoop=1;jettySize=auto;html=1;" parent="1" source="uxkE2W5Ma2Xc4yEUWn1J-55" edge="1">
          <mxGeometry relative="1" as="geometry">
            <mxPoint x="420" y="880" as="targetPoint" />
          </mxGeometry>
        </mxCell>
        <mxCell id="uxkE2W5Ma2Xc4yEUWn1J-55" value="反射构造器里面传参lazymap" style="ellipse;whiteSpace=wrap;html=1;" parent="1" vertex="1">
          <mxGeometry x="360" y="680" width="120" height="80" as="geometry" />
        </mxCell>
        <mxCell id="uxkE2W5Ma2Xc4yEUWn1J-58" style="edgeStyle=orthogonalEdgeStyle;rounded=0;orthogonalLoop=1;jettySize=auto;html=1;entryX=0;entryY=0.5;entryDx=0;entryDy=0;" parent="1" source="uxkE2W5Ma2Xc4yEUWn1J-57" target="uxkE2W5Ma2Xc4yEUWn1J-53" edge="1">
          <mxGeometry relative="1" as="geometry" />
        </mxCell>
        <mxCell id="uxkE2W5Ma2Xc4yEUWn1J-57" value="AnnotationInvocationHandler&lt;div&gt;.readObject(Map.entrySet)&lt;/div&gt;" style="rounded=1;whiteSpace=wrap;html=1;" parent="1" vertex="1">
          <mxGeometry x="-40" y="850" width="160" height="60" as="geometry" />
        </mxCell>
        <mxCell id="uxkE2W5Ma2Xc4yEUWn1J-60" style="edgeStyle=orthogonalEdgeStyle;rounded=0;orthogonalLoop=1;jettySize=auto;html=1;" parent="1" source="uxkE2W5Ma2Xc4yEUWn1J-59" edge="1">
          <mxGeometry relative="1" as="geometry">
            <mxPoint x="180" y="879.9999999999998" as="targetPoint" />
          </mxGeometry>
        </mxCell>
        <mxCell id="uxkE2W5Ma2Xc4yEUWn1J-59" value="在AnnotationInvocationHandler&lt;div&gt;中有需求：&lt;span style=&quot;background-color: transparent; color: light-dark(rgb(0, 0, 0), rgb(255, 255, 255));&quot;&gt;自己的invoke方法&lt;/span&gt;&lt;/div&gt;&lt;div&gt;调目标类lazymap方法，&lt;span style=&quot;background-color: transparent; color: light-dark(rgb(0, 0, 0), rgb(255, 255, 255));&quot;&gt;而恰好它的&lt;/span&gt;&lt;/div&gt;&lt;div&gt;&lt;span style=&quot;background-color: transparent; color: light-dark(rgb(0, 0, 0), rgb(255, 255, 255));&quot;&gt;有参构造器接收的是map类型的，&lt;/span&gt;&lt;/div&gt;&lt;div&gt;所以将Proxy创建的代理类强转成Map类传入构造器，readObject方法里就会调代理类的方法，触发&lt;/div&gt;&lt;div&gt;动态代理类的invoke方法&lt;/div&gt;" style="ellipse;whiteSpace=wrap;html=1;" parent="1" vertex="1">
          <mxGeometry x="-10" y="620" width="290" height="140" as="geometry" />
        </mxCell>
        <mxCell id="uxkE2W5Ma2Xc4yEUWn1J-63" value="" style="endArrow=none;dashed=1;html=1;dashPattern=1 3;strokeWidth=2;rounded=0;entryX=0.018;entryY=0.695;entryDx=0;entryDy=0;entryPerimeter=0;" parent="1" target="uxkE2W5Ma2Xc4yEUWn1J-59" edge="1">
          <mxGeometry width="50" height="50" relative="1" as="geometry">
            <mxPoint x="-110" y="700" as="sourcePoint" />
            <mxPoint x="-100" y="710" as="targetPoint" />
            <Array as="points">
              <mxPoint x="-110" y="700" />
              <mxPoint x="-70" y="720" />
              <mxPoint x="-40" y="700" />
            </Array>
          </mxGeometry>
        </mxCell>
        <mxCell id="uxkE2W5Ma2Xc4yEUWn1J-66" value="LazyMap.decorate&lt;div&gt;传参ChainedTransformer&lt;/div&gt;" style="ellipse;whiteSpace=wrap;html=1;" parent="1" vertex="1">
          <mxGeometry x="570" y="675" width="130" height="90" as="geometry" />
        </mxCell>
        <mxCell id="uxkE2W5Ma2Xc4yEUWn1J-69" value="Proxy创建的代理类也不一定是要传入AnnotationInvocationHandler中，也可是其他可以其他类" style="ellipse;whiteSpace=wrap;html=1;" parent="1" vertex="1">
          <mxGeometry x="-300" y="640" width="190" height="109" as="geometry" />
        </mxCell>
        <mxCell id="uxkE2W5Ma2Xc4yEUWn1J-70" value="Runtime不能反序&lt;div&gt;列化，结合Class，反射&lt;/div&gt;&lt;div&gt;解决&lt;/div&gt;" style="ellipse;shape=cloud;whiteSpace=wrap;html=1;" parent="1" vertex="1">
          <mxGeometry x="720" y="100" width="160" height="90" as="geometry" />
        </mxCell>
        <mxCell id="uxkE2W5Ma2Xc4yEUWn1J-71" style="edgeStyle=orthogonalEdgeStyle;rounded=0;orthogonalLoop=1;jettySize=auto;html=1;entryX=0.809;entryY=-0.022;entryDx=0;entryDy=0;entryPerimeter=0;" parent="1" source="uxkE2W5Ma2Xc4yEUWn1J-70" target="uxkE2W5Ma2Xc4yEUWn1J-16" edge="1">
          <mxGeometry relative="1" as="geometry" />
        </mxCell>
        <mxCell id="uxkE2W5Ma2Xc4yEUWn1J-79" style="edgeStyle=orthogonalEdgeStyle;rounded=0;orthogonalLoop=1;jettySize=auto;html=1;" parent="1" source="uxkE2W5Ma2Xc4yEUWn1J-72" target="uxkE2W5Ma2Xc4yEUWn1J-80" edge="1">
          <mxGeometry relative="1" as="geometry">
            <mxPoint x="-100" y="1070" as="targetPoint" />
          </mxGeometry>
        </mxCell>
        <mxCell id="uxkE2W5Ma2Xc4yEUWn1J-72" value="HashMap.readObject&lt;div&gt;.putVal(hash(key))&lt;/div&gt;" style="rounded=1;whiteSpace=wrap;html=1;" parent="1" vertex="1">
          <mxGeometry x="-280" y="1040" width="120" height="60" as="geometry" />
        </mxCell>
        <mxCell id="uxkE2W5Ma2Xc4yEUWn1J-76" value="CC1_TransformedMap" style="rounded=0;whiteSpace=wrap;html=1;fillColor=#f8cecc;strokeColor=#b85450;gradientColor=#ea6b66;" parent="1" vertex="1">
          <mxGeometry x="-440" y="260" width="120" height="60" as="geometry" />
        </mxCell>
        <mxCell id="uxkE2W5Ma2Xc4yEUWn1J-77" value="CC1_LazyMap" style="rounded=0;whiteSpace=wrap;html=1;fillColor=#f8cecc;gradientColor=#ea6b66;strokeColor=#b85450;" parent="1" vertex="1">
          <mxGeometry x="-445" y="850" width="120" height="60" as="geometry" />
        </mxCell>
        <mxCell id="uxkE2W5Ma2Xc4yEUWn1J-78" value="CC6" style="rounded=0;whiteSpace=wrap;html=1;fillColor=#f8cecc;gradientColor=#ea6b66;strokeColor=#b85450;" parent="1" vertex="1">
          <mxGeometry x="-450" y="1040" width="130" height="60" as="geometry" />
        </mxCell>
        <mxCell id="uxkE2W5Ma2Xc4yEUWn1J-82" value="" style="edgeStyle=orthogonalEdgeStyle;rounded=0;orthogonalLoop=1;jettySize=auto;html=1;" parent="1" source="uxkE2W5Ma2Xc4yEUWn1J-80" target="uxkE2W5Ma2Xc4yEUWn1J-81" edge="1">
          <mxGeometry relative="1" as="geometry" />
        </mxCell>
        <mxCell id="uxkE2W5Ma2Xc4yEUWn1J-80" value="HashMap.hash&lt;div&gt;.(key.hashCode)&lt;/div&gt;" style="rounded=1;whiteSpace=wrap;html=1;" parent="1" vertex="1">
          <mxGeometry x="-100" y="1040" width="120" height="60" as="geometry" />
        </mxCell>
        <mxCell id="uxkE2W5Ma2Xc4yEUWn1J-84" value="" style="edgeStyle=orthogonalEdgeStyle;rounded=0;orthogonalLoop=1;jettySize=auto;html=1;" parent="1" source="uxkE2W5Ma2Xc4yEUWn1J-81" target="uxkE2W5Ma2Xc4yEUWn1J-83" edge="1">
          <mxGeometry relative="1" as="geometry" />
        </mxCell>
        <mxCell id="uxkE2W5Ma2Xc4yEUWn1J-81" value="TiedMapEntry.hashCode&lt;div&gt;.getValue()&lt;/div&gt;" style="whiteSpace=wrap;html=1;rounded=1;" parent="1" vertex="1">
          <mxGeometry x="100" y="1040" width="130" height="60" as="geometry" />
        </mxCell>
        <mxCell id="uxkE2W5Ma2Xc4yEUWn1J-110" value="" style="edgeStyle=orthogonalEdgeStyle;rounded=0;orthogonalLoop=1;jettySize=auto;html=1;" parent="1" source="uxkE2W5Ma2Xc4yEUWn1J-83" target="uxkE2W5Ma2Xc4yEUWn1J-109" edge="1">
          <mxGeometry relative="1" as="geometry" />
        </mxCell>
        <mxCell id="uxkE2W5Ma2Xc4yEUWn1J-83" value="TiedMapEntry.getValue&lt;div&gt;.(map.get(key))&lt;/div&gt;" style="whiteSpace=wrap;html=1;rounded=1;" parent="1" vertex="1">
          <mxGeometry x="315" y="1040" width="125" height="60" as="geometry" />
        </mxCell>
        <mxCell id="uxkE2W5Ma2Xc4yEUWn1J-112" style="edgeStyle=orthogonalEdgeStyle;rounded=0;orthogonalLoop=1;jettySize=auto;html=1;" parent="1" source="uxkE2W5Ma2Xc4yEUWn1J-89" edge="1">
          <mxGeometry relative="1" as="geometry">
            <mxPoint x="500" y="1070" as="targetPoint" />
          </mxGeometry>
        </mxCell>
        <mxCell id="uxkE2W5Ma2Xc4yEUWn1J-89" value="TiedMapEntry&lt;div&gt;有参构造器传map:lazymap&lt;div&gt;key:随便&lt;/div&gt;&lt;/div&gt;" style="ellipse;whiteSpace=wrap;html=1;" parent="1" vertex="1">
          <mxGeometry x="430" y="920" width="120" height="70" as="geometry" />
        </mxCell>
        <mxCell id="uxkE2W5Ma2Xc4yEUWn1J-93" style="edgeStyle=orthogonalEdgeStyle;rounded=0;orthogonalLoop=1;jettySize=auto;html=1;" parent="1" source="uxkE2W5Ma2Xc4yEUWn1J-92" edge="1">
          <mxGeometry relative="1" as="geometry">
            <mxPoint x="50" y="1070" as="targetPoint" />
          </mxGeometry>
        </mxCell>
        <mxCell id="uxkE2W5Ma2Xc4yEUWn1J-92" value="将 TiedMapEntry对象&lt;div&gt;put进HashMap实例化对象的key&lt;/div&gt;" style="ellipse;whiteSpace=wrap;html=1;" parent="1" vertex="1">
          <mxGeometry y="1150" width="120" height="70" as="geometry" />
        </mxCell>
        <mxCell id="uxkE2W5Ma2Xc4yEUWn1J-94" value="" style="strokeWidth=2;html=1;shape=mxgraph.flowchart.annotation_2;align=left;labelPosition=right;pointerEvents=1;" parent="1" vertex="1">
          <mxGeometry x="120" y="1140" width="240" height="100" as="geometry" />
        </mxCell>
        <mxCell id="uxkE2W5Ma2Xc4yEUWn1J-96" value="put引发两个问题" style="rhombus;whiteSpace=wrap;html=1;" parent="1" vertex="1">
          <mxGeometry x="110" y="1140" width="120" height="30" as="geometry" />
        </mxCell>
        <mxCell id="uxkE2W5Ma2Xc4yEUWn1J-97" value="与URLdns一样，会提前消耗hashCode" style="rounded=1;whiteSpace=wrap;html=1;" parent="1" vertex="1">
          <mxGeometry x="354" y="1110" width="120" height="60" as="geometry" />
        </mxCell>
        <mxCell id="uxkE2W5Ma2Xc4yEUWn1J-98" value="" style="shape=link;html=1;rounded=0;" parent="1" edge="1">
          <mxGeometry width="100" relative="1" as="geometry">
            <mxPoint x="474" y="1140" as="sourcePoint" />
            <mxPoint x="620" y="1140" as="targetPoint" />
          </mxGeometry>
        </mxCell>
        <mxCell id="uxkE2W5Ma2Xc4yEUWn1J-99" value="解决" style="text;html=1;align=center;verticalAlign=middle;resizable=0;points=[];autosize=1;strokeColor=none;fillColor=none;" parent="1" vertex="1">
          <mxGeometry x="530" y="1110" width="50" height="30" as="geometry" />
        </mxCell>
        <mxCell id="uxkE2W5Ma2Xc4yEUWn1J-100" value="后面随便一处先&lt;span style=&quot;background-color: transparent; color: light-dark(rgb(0, 0, 0), rgb(255, 255, 255));&quot;&gt;断开：LazyMap.decorate(),传&lt;/span&gt;&lt;span style=&quot;background-color: transparent; color: light-dark(rgb(0, 0, 0), rgb(255, 255, 255));&quot;&gt;new ConstantTransformer(1)&lt;/span&gt;&lt;div&gt;&lt;div&gt;&lt;div&gt;&lt;br&gt;&lt;/div&gt;&lt;/div&gt;&lt;/div&gt;" style="rounded=1;whiteSpace=wrap;html=1;" parent="1" vertex="1">
          <mxGeometry x="610" y="1110" width="140" height="70" as="geometry" />
        </mxCell>
        <mxCell id="uxkE2W5Ma2Xc4yEUWn1J-103" value="put触发到LazyMap.get时&lt;div&gt;会判断LazyMap传进去的map是否有get参数key值没有调transform,并将当前get(key)的key,put进去&lt;/div&gt;" style="rounded=1;whiteSpace=wrap;html=1;" parent="1" vertex="1">
          <mxGeometry x="340" y="1200" width="140" height="80" as="geometry" />
        </mxCell>
        <mxCell id="uxkE2W5Ma2Xc4yEUWn1J-104" value="导致真正反序列化要执行的时候LazyMap.get 不会调transform方法" style="rounded=1;whiteSpace=wrap;html=1;" parent="1" vertex="1">
          <mxGeometry x="480" y="1202.5" width="130" height="77.5" as="geometry" />
        </mxCell>
        <mxCell id="uxkE2W5Ma2Xc4yEUWn1J-106" value="" style="shape=link;html=1;rounded=0;" parent="1" edge="1">
          <mxGeometry width="100" relative="1" as="geometry">
            <mxPoint x="610" y="1240" as="sourcePoint" />
            <mxPoint x="750" y="1240" as="targetPoint" />
          </mxGeometry>
        </mxCell>
        <mxCell id="uxkE2W5Ma2Xc4yEUWn1J-107" value="解决" style="text;html=1;align=center;verticalAlign=middle;resizable=0;points=[];autosize=1;strokeColor=none;fillColor=none;" parent="1" vertex="1">
          <mxGeometry x="663.25" y="1210" width="50" height="30" as="geometry" />
        </mxCell>
        <mxCell id="uxkE2W5Ma2Xc4yEUWn1J-108" value="put后删除key" style="rounded=1;whiteSpace=wrap;html=1;" parent="1" vertex="1">
          <mxGeometry x="753.25" y="1210" width="126.75" height="60" as="geometry" />
        </mxCell>
        <mxCell id="uxkE2W5Ma2Xc4yEUWn1J-114" value="" style="edgeStyle=orthogonalEdgeStyle;rounded=0;orthogonalLoop=1;jettySize=auto;html=1;" parent="1" source="uxkE2W5Ma2Xc4yEUWn1J-109" target="uxkE2W5Ma2Xc4yEUWn1J-113" edge="1">
          <mxGeometry relative="1" as="geometry" />
        </mxCell>
        <mxCell id="uxkE2W5Ma2Xc4yEUWn1J-109" value="LazyMap.get(key).(factory.transform(key))" style="whiteSpace=wrap;html=1;rounded=1;" parent="1" vertex="1">
          <mxGeometry x="522.5" y="1040" width="127.5" height="60" as="geometry" />
        </mxCell>
        <mxCell id="uxkE2W5Ma2Xc4yEUWn1J-113" value="ChainedTransformer&lt;div&gt;.transform&lt;/div&gt;" style="whiteSpace=wrap;html=1;rounded=1;" parent="1" vertex="1">
          <mxGeometry x="733.75" y="1040" width="120" height="60" as="geometry" />
        </mxCell>
        <mxCell id="uxkE2W5Ma2Xc4yEUWn1J-116" style="edgeStyle=orthogonalEdgeStyle;rounded=0;orthogonalLoop=1;jettySize=auto;html=1;" parent="1" source="uxkE2W5Ma2Xc4yEUWn1J-115" edge="1">
          <mxGeometry relative="1" as="geometry">
            <mxPoint x="700" y="1070" as="targetPoint" />
          </mxGeometry>
        </mxCell>
        <mxCell id="uxkE2W5Ma2Xc4yEUWn1J-115" value="LazyMap.decorate赋值map(key为空的map),factory" style="ellipse;whiteSpace=wrap;html=1;" parent="1" vertex="1">
          <mxGeometry x="633.25" y="930" width="120" height="80" as="geometry" />
        </mxCell>
        <mxCell id="uxkE2W5Ma2Xc4yEUWn1J-117" value="这儿是在put后&lt;div&gt;反射修改的&lt;/div&gt;" style="ellipse;shape=cloud;whiteSpace=wrap;html=1;" parent="1" vertex="1">
          <mxGeometry x="850" y="930" width="120" height="80" as="geometry" />
        </mxCell>
        <mxCell id="uxkE2W5Ma2Xc4yEUWn1J-119" value="" style="curved=1;endArrow=classic;html=1;rounded=0;exitX=0.222;exitY=0.856;exitDx=0;exitDy=0;exitPerimeter=0;" parent="1" edge="1">
          <mxGeometry width="50" height="50" relative="1" as="geometry">
            <mxPoint x="859.9999999999999" y="988.4800000000002" as="sourcePoint" />
            <mxPoint x="807.11" y="1030" as="targetPoint" />
            <Array as="points">
              <mxPoint x="813.36" y="980" />
              <mxPoint x="843.36" y="1020" />
            </Array>
          </mxGeometry>
        </mxCell>
      </root>
    </mxGraphModel>
  </diagram>
</mxfile>
